<svg width="174" height="93" viewBox="0 0 174 93" fill="none" xmlns="http://www.w3.org/2000/svg">
<path d="M51.8558 89.5058H18.8784V83.7707C18.8784 83.7707 27.9591 83.7707 30.3488 78.5134C32.7385 73.2561 67.6276 3 67.6276 3H113.987V7.77933C113.987 7.77933 99.6491 8.25726 100.127 12.0807C100.605 15.9042 99.6491 44.5802 99.6491 44.5802L130.715 13.0366C130.715 13.0366 133.104 9.69106 130.715 8.73519C128.325 7.77933 122.112 7.3014 122.112 7.3014V3H161.78V7.77933C161.78 7.77933 153.178 8.25726 147.92 10.6469C142.663 13.0366 116.855 38.367 116.855 38.367L142.185 67.043L151.744 77.5575C151.744 77.5575 157.479 81.8589 161.78 82.3369C166.082 82.8148 170.383 83.7707 170.383 83.7707V89.5058H118.288V83.7707L124.979 83.2927C124.979 83.2927 128.803 82.3369 126.413 79.4693C124.024 76.6017 99.6491 46.014 99.6491 46.014V77.5575C99.6491 77.5575 99.1711 81.8589 104.428 82.8148C109.686 83.7707 113.509 84.2486 113.509 84.2486V89.5058H63.8041L63.3262 84.2486L76.2304 81.8589C76.2304 81.8589 79.098 80.4251 78.62 77.0796C78.1421 73.7341 79.098 13.0366 79.098 13.0366C79.098 13.0366 76.2304 6.82346 72.4069 12.5587C68.5834 18.2939 51.8558 55.5726 51.8558 55.5726H71.929V62.2637H48.5103L42.2971 78.0355C42.2971 78.0355 40.3854 82.3369 44.2089 82.8148C48.0323 83.2927 52.3337 84.2486 52.3337 84.2486L51.8558 89.5058Z" fill="#066CA5" stroke="#066CA5" stroke-width="6" stroke-miterlimit="10" stroke-linejoin="round"/>
<path d="M167.811 51.7534L154.61 47.49C152.616 46.8459 151.553 44.5493 152.25 42.3904L152.282 42.2929C152.979 40.1341 155.184 38.8929 157.179 39.537L170.367 43.7963C172.361 44.4403 173.424 46.737 172.727 48.8958L172.695 48.9933C172.011 51.1564 169.806 52.3975 167.811 51.7534ZM169.214 43.4083L157.942 39.7682L155.369 47.7352L166.641 51.3753L169.214 43.4083ZM162.793 50.1328L159.551 49.0857L156.839 57.4844L160.081 58.5315L162.793 50.1328ZM154.575 73.9954L156.321 68.5913C156.433 68.2431 156.266 67.8814 155.944 67.7775C155.622 67.6737 155.275 67.8691 155.163 68.2173L153.417 73.6215C153.305 73.9697 153.472 74.3313 153.794 74.4352C154.12 74.5252 154.467 74.3297 154.575 73.9954ZM153.687 76.6154L153.804 76.2533C153.907 75.9329 153.748 75.5893 153.452 75.4938C153.156 75.3982 152.826 75.5839 152.723 75.9042L152.606 76.2664C152.502 76.5867 152.661 76.9303 152.957 77.0259C153.253 77.1214 153.583 76.9358 153.687 76.6154ZM155.018 78.1682L160.659 60.7022C160.978 59.7133 160.493 58.6645 159.579 58.3695L157.289 57.6298C156.375 57.3348 155.368 57.9016 155.049 58.8905L149.408 76.3565C149.089 77.3454 149.574 78.3942 150.488 78.6893L152.778 79.4289C153.691 79.7239 154.699 79.1571 155.018 78.1682Z" stroke="#066CA5" stroke-miterlimit="10"/>
<path d="M112 18.9523C116.339 18.9523 118.951 15.248 119.453 15.4171C119.476 15.425 119.465 15.4523 119.44 15.4523H104.577C104.55 15.4523 104.543 15.4269 104.57 15.427C105.149 15.4277 107.707 18.9523 112 18.9523ZM112 18.9523V19.4523M112 28.9523H116M112 28.9523H108M112 28.9523L112 26.9523M112 21.9523V24.4523" stroke="#066CA5" stroke-linecap="round" stroke-linejoin="round"/>
<path d="M109.5 26.9523C110 25.4523 114.5 25.9523 114.5 24.4523C114.5 23.9612 114.029 23.6982 113.341 23.5372M111.605 12.4523H110.644C110.558 12.4523 110.482 12.5074 110.454 12.589L110.032 13.8574C110.019 13.8965 110.056 13.9337 110.095 13.9206L111.378 13.493C111.452 13.4682 111.505 13.4021 111.513 13.3241L111.605 12.4523ZM111.605 12.4523C113.435 11.2291 115.554 12.2369 116.5 13.8177M110.568 23.2023C109.199 23.057 108.5 22.4523 108.5 21.9523C108.5 20.4937 114.552 20.9189 115.875 19.6029" stroke="#066CA5" stroke-linecap="round" stroke-linejoin="round"/>
<path d="M19.7619 48.8202L25.4544 77.1692C25.6844 78.3146 26.3163 80.571 23.5673 81.123C20.8572 81.6672 19.6407 78.5761 20.9333 76.9069M19.7619 48.8202C16.6952 49.436 16.2307 52.3765 17.6328 53.9779M20.2688 79.2591C19.5184 79.5577 18.6965 79.6372 17.8761 79.4905C17.0556 79.3438 16.2618 78.9755 15.565 78.4182C14.8682 77.8609 14.29 77.1319 13.8815 76.2955C13.4729 75.4592 13.2468 74.5415 13.223 73.6237C13.1992 72.7058 13.3785 71.8162 13.745 71.0336C14.1116 70.251 14.6541 69.5996 15.3244 69.1371M13.0814 58.1434C12.7271 57.7006 12.4857 57.1563 12.3788 56.5587C12.2718 55.9611 12.3026 55.3286 12.4682 54.7174C12.6339 54.1061 12.9294 53.5349 13.3286 53.0544C13.7278 52.5738 14.2183 52.1987 14.7567 51.9624C15.2951 51.726 15.8648 51.6356 16.4153 51.6992M13.6879 70.6356C13.1849 70.6788 12.6788 70.5813 12.2143 70.3517C11.7499 70.1221 11.3415 69.7676 11.0253 69.3195C10.7091 68.8715 10.4949 68.3437 10.4016 67.7829C10.3083 67.2221 10.3389 66.6457 10.4905 66.1046C10.6422 65.5636 10.9103 65.0747 11.2711 64.6811C11.6319 64.2876 12.0742 64.0016 12.5589 63.8485M11.6352 64.1399C11.0835 63.9051 10.5984 63.5377 10.2228 63.0702C9.84719 62.6028 9.59264 62.0498 9.48171 61.4601C9.37077 60.8705 9.40689 60.2625 9.58684 59.6899C9.7668 59.1173 10.085 58.5978 10.5134 58.1775C10.9417 57.7572 11.467 57.449 12.0425 57.2802" stroke="#066CA5" stroke-linecap="round"/>
<path d="M17.1521 65.7709C17.6623 65.6485 18.1979 65.6721 18.7115 65.8397C19.225 66.0074 19.7007 66.3138 20.0964 66.732C20.492 67.1502 20.7954 67.6671 20.9797 68.2371C21.164 68.807 21.2235 69.4124 21.1529 69.9995C21.0823 70.5866 20.8838 71.1374 20.575 71.603" stroke="#066CA5" stroke-linecap="round" stroke-linejoin="round"/>
<path d="M21.9484 60.0996C21.4129 60.2065 20.8733 60.1874 20.3773 60.044C19.8812 59.9006 19.4442 59.6372 19.1048 59.2773C18.7654 58.9175 18.5341 58.4721 18.4315 57.9807" stroke="#066CA5" stroke-linecap="round" stroke-linejoin="round"/>
<path d="M14.5873 62.6024C14.8808 62.5469 15.147 62.4191 15.3621 62.2303C15.5773 62.0416 15.7348 61.7977 15.8208 61.5203C15.9067 61.2428 15.9185 60.9404 15.8549 60.6398" stroke="#066CA5" stroke-linecap="round" stroke-linejoin="round"/>
<path d="M18.751 74.9405C18.5529 75.048 18.3281 75.0977 18.0964 75.0853C17.8648 75.0728 17.6334 74.9986 17.4228 74.8691C17.2122 74.7396 17.0288 74.5589 16.889 74.3429C16.7492 74.127 16.6573 73.8825 16.6213 73.631C16.5853 73.3796 16.6064 73.1291 16.6828 72.9016" stroke="#066CA5" stroke-linecap="round" stroke-linejoin="round"/>
<path d="M23.2002 48.1297L28.8928 76.4788C29.1228 77.6242 29.411 79.9495 32.16 79.3975C34.84 78.8594 34.8002 75.6057 33.0227 74.5269M23.2002 48.1297C26.2669 47.5139 27.8305 50.0472 27.1553 52.0657M34.4832 76.4048C35.2907 76.3905 36.0795 76.1466 36.7798 75.6946C37.4801 75.2425 38.0701 74.5964 38.4978 73.8133C38.9254 73.0302 39.1774 72.1344 39.2314 71.2052C39.2854 70.276 39.1398 69.3421 38.8074 68.4862C38.475 67.6304 37.9662 66.8789 37.3259 66.2985C36.6857 65.7181 35.9338 65.3266 35.1368 65.1587M32.962 54.1513C33.118 53.606 33.1304 53.0107 32.9984 52.4182C32.8664 51.8256 32.5939 51.2541 32.2051 50.7542C31.8163 50.2543 31.3232 49.8414 30.7694 49.5522C30.2157 49.263 29.6184 49.1064 29.0305 49.0961C28.4425 49.0859 27.8821 49.2225 27.3989 49.4937M37.225 65.9093C37.7057 65.755 38.1349 65.4696 38.4747 65.0785C38.8145 64.6875 39.0544 64.2028 39.1731 63.6674C39.2918 63.132 39.2857 62.5624 39.1553 62.0091C39.0248 61.4558 38.7741 60.9358 38.4254 60.4953C38.0766 60.0547 37.6405 59.7072 37.1558 59.4834C36.671 59.2597 36.1526 59.1666 35.6464 59.2125M36.611 59.1247C37.0292 58.6951 37.3349 58.1689 37.5009 57.5927C37.667 57.0165 37.6883 56.4081 37.563 55.8213C37.4377 55.2346 37.1697 54.6876 36.7827 54.2289C36.3956 53.7702 35.9015 53.4138 35.3441 53.1915C34.7867 52.9691 34.1832 52.8875 33.5871 52.954" stroke="#066CA5" stroke-linecap="round"/>
<path d="M33.1335 62.9977C32.6088 62.9938 32.0924 63.1379 31.63 63.4173C31.1677 63.6968 30.7736 64.1029 30.4828 64.5997C30.1919 65.0965 30.0133 65.6686 29.9627 66.2655C29.912 66.8624 29.991 67.4655 30.1925 68.0214" stroke="#066CA5" stroke-linecap="round" stroke-linejoin="round"/>
<path d="M28.9689 55.5512C29.5083 55.4664 30.0467 55.5078 30.5364 55.6715C31.0261 55.8353 31.4519 56.1165 31.7762 56.4901C32.1004 56.8637 32.3131 57.3182 32.3953 57.8134" stroke="#066CA5" stroke-linecap="round" stroke-linejoin="round"/>
<path d="M29.0847 61.1161C28.9222 60.8654 28.8309 60.5847 28.8189 60.2987C28.807 60.0127 28.8747 59.7304 29.0161 59.4767C29.1574 59.223 29.3681 59.0057 29.6295 58.8442" stroke="#066CA5" stroke-linecap="round" stroke-linejoin="round"/>
<path d="M34.4266 71.1597C34.6111 71.0304 34.7559 70.8513 34.8481 70.6384C34.9403 70.4255 34.977 70.1853 34.955 69.939C34.9331 69.6928 34.8531 69.4481 34.7222 69.2266C34.5912 69.0052 34.4134 68.8138 34.2044 68.6695C33.9955 68.5252 33.7618 68.4323 33.5241 68.3992" stroke="#066CA5" stroke-linecap="round" stroke-linejoin="round"/>
</svg>
