<svg width="64" height="64" viewBox="0 0 64 64" fill="none" xmlns="http://www.w3.org/2000/svg">
<path fill-rule="evenodd" clip-rule="evenodd" d="M32 62C47.464 62 60 49.464 60 34C60 18.536 47.464 6 32 6C16.536 6 4 18.536 4 34C4 39.0218 5.32199 43.7348 7.63695 47.8099L4 62L18.6297 58.6076C22.6028 60.7709 27.1578 62 32 62ZM32 57.6923C45.0849 57.6923 55.6923 47.0849 55.6923 34C55.6923 20.9151 45.0849 10.3077 32 10.3077C18.9151 10.3077 8.30769 20.9151 8.30769 34C8.30769 39.0521 9.889 43.7349 12.5837 47.5804L10.4615 55.5385L18.5599 53.5139C22.3787 56.1491 27.0091 57.6923 32 57.6923Z" fill="#BFC8D0"/>
<path d="M56 32C56 45.2548 45.2548 56 32 56C26.9443 56 22.2538 54.4368 18.3853 51.7673L10.1818 53.8182L12.3315 45.7568C9.60185 41.8614 8 37.1177 8 32C8 18.7452 18.7452 8 32 8C45.2548 8 56 18.7452 56 32Z" fill="url(#paint0_linear_1_192)"/>
<path fill-rule="evenodd" clip-rule="evenodd" d="M32 60C47.464 60 60 47.464 60 32C60 16.536 47.464 4 32 4C16.536 4 4 16.536 4 32C4 37.0218 5.32199 41.7348 7.63695 45.8099L4 60L18.6297 56.6076C22.6028 58.7709 27.1578 60 32 60ZM32 55.6923C45.0849 55.6923 55.6923 45.0849 55.6923 32C55.6923 18.9151 45.0849 8.30769 32 8.30769C18.9151 8.30769 8.30769 18.9151 8.30769 32C8.30769 37.0521 9.889 41.7349 12.5837 45.5804L10.4615 53.5385L18.5599 51.5139C22.3787 54.1491 27.0091 55.6923 32 55.6923Z" fill="white"/>
<path d="M25 19C24.3343 17.6629 23.3131 17.7812 22.2814 17.7812C20.4375 17.7812 17.5625 19.9898 17.5625 24.1002C17.5625 27.4688 19.0469 31.1563 24.0488 36.6725C28.8761 41.996 35.2188 44.7499 40.4844 44.6561C45.75 44.5624 46.8334 40.0311 46.8334 38.5009C46.8334 37.8226 46.4125 37.4842 46.1225 37.3923C44.3281 36.5311 41.0187 34.9265 40.2656 34.625C39.5126 34.3236 39.1194 34.7313 38.875 34.9532C38.1921 35.6039 36.8385 37.5218 36.375 37.9532C35.9115 38.3845 35.2206 38.1662 34.933 38.0032C33.8749 37.5785 31.0059 36.3024 28.7189 34.0855C25.8906 31.3438 25.7247 30.4005 25.1918 29.5609C24.7655 28.8891 25.0783 28.477 25.2344 28.2969C25.8438 27.5938 26.6852 26.5082 27.0625 25.9688C27.4399 25.4293 27.1403 24.6103 26.9606 24.1002C26.1875 21.9063 25.5326 20.0697 25 19Z" fill="white"/>
<defs>
<linearGradient id="paint0_linear_1_192" x1="53" y1="14" x2="8" y2="56" gradientUnits="userSpaceOnUse">
<stop stop-color="#5BD066"/>
<stop offset="1" stop-color="#27B43E"/>
</linearGradient>
</defs>
</svg>
